<svg width="302" height="46" viewBox="0 0 302 46" fill="none" xmlns="http://www.w3.org/2000/svg">
<g clip-path="url(#clip0_2_18)">
<path fill-rule="evenodd" clip-rule="evenodd" d="M122.914 23V31H124.391H125.868L132.124 25.1412C135.564 21.9189 138.559 19.027 138.777 18.7148C139.625 17.5058 139.158 15.8053 137.825 15.2452C136.849 14.835 136.701 14.9056 136.701 15.7796C136.701 16.4149 136.782 16.613 137.143 16.8503C137.386 17.0105 137.584 17.2343 137.584 17.3479C137.584 17.5909 137.494 17.6788 130.464 24.2889C127.475 27.1001 124.911 29.4 124.767 29.4C124.54 29.4 124.505 28.4414 124.505 22.2V15H123.709H122.914V23ZM67.1134 15.5262C66.1255 16.1319 66 16.6098 66 19.7648C66 22.408 66.0262 22.6311 66.4012 23.1959C67.201 24.4002 67.3352 24.4217 74.059 24.4219C79.6726 24.4222 80.1053 24.4444 80.3779 24.7474C80.7872 25.2023 80.8005 28.4231 80.3952 29.0048L80.1202 29.4H74.0362H67.9524L67.6629 28.9556C67.4363 28.6076 67.224 28.5111 66.6867 28.5111C66.0684 28.5111 66 28.5563 66 28.9644C66 29.558 66.4283 30.3748 66.9221 30.7225C67.262 30.962 68.2235 30.9998 73.949 30.9993C80.216 30.9988 80.6133 30.9796 81.1478 30.6516C82.1501 30.037 82.3495 29.4164 82.3495 26.9111C82.3495 24.4645 82.1613 23.8708 81.1437 23.1076C80.6624 22.7463 80.4293 22.7316 74.4316 22.6802C69.0235 22.6338 68.1774 22.5899 67.9043 22.3415C67.6357 22.0969 67.5908 21.7351 67.5908 19.8121C67.5908 16.4668 66.9225 16.7778 74.1133 16.7778C79.6744 16.7778 80.1055 16.8002 80.3779 17.1029C80.5387 17.2818 80.6704 17.5218 80.6704 17.6363C80.6704 17.7676 80.9974 17.8444 81.5575 17.8444C82.4358 17.8444 82.4434 17.8395 82.3281 17.3556C82.1226 16.4932 81.7282 15.8821 81.1478 15.5262C80.614 15.1988 80.2181 15.179 74.1306 15.179C68.0431 15.179 67.6471 15.1988 67.1134 15.5262ZM84.9124 15.9778V16.7778H88.6242H92.336V23.0889V29.4H88.6242H84.9124V30.2V31H93.1314H101.35V30.2V29.4H97.6385H93.9268V23.0924V16.7851L97.5943 16.7369L101.262 16.6889L101.316 15.9333L101.371 15.1778H93.1414H84.9124V15.9778ZM103.825 23.0889V31L111.116 30.9993C118.031 30.9988 118.436 30.9808 118.972 30.6523C120.049 29.9918 120.174 29.5982 120.174 26.8875C120.174 24.7012 120.137 24.3973 119.81 23.9573C119.294 23.2628 118.67 22.846 118.053 22.7854C117.553 22.7364 117.52 22.7733 117.467 23.43C117.418 24.03 117.485 24.1863 117.953 24.5541L118.495 24.9813V26.8964C118.495 28.526 118.447 28.8555 118.172 29.1058C117.884 29.3678 117.169 29.4 111.632 29.4H105.416V22.2889V15.1778H104.62H103.825V23.0889ZM141.826 23.0889V31H149.097C156.17 31 156.383 30.9899 156.966 30.6272C157.664 30.1934 158.088 29.4651 158.088 28.6978C158.088 28.1737 158.061 28.1556 157.292 28.1556C156.703 28.1556 156.497 28.2247 156.497 28.4222C156.497 28.5689 156.338 28.8489 156.143 29.0444C155.803 29.3865 155.554 29.4 149.604 29.4H143.417V26.9134V24.4268L149.559 24.3801L155.701 24.3333V23.5333V22.7333L149.559 22.6866L143.417 22.6398V19.7088V16.7778H149.604C155.554 16.7778 155.803 16.7913 156.143 17.1333C156.338 17.3289 156.497 17.5689 156.497 17.6667C156.497 17.7644 156.855 17.8444 157.292 17.8444C158.027 17.8444 158.088 17.8098 158.088 17.3911C158.088 16.7143 157.612 15.917 156.974 15.5262C156.437 15.1968 156.037 15.179 149.117 15.1785L141.826 15.1778V23.0889ZM160.739 15.8236C160.739 16.4215 160.965 16.699 163.777 19.557L166.815 22.6444H163.777H160.739V26.8222V31H161.534H162.33V27.7111V24.4222H165.38H168.431L171.697 27.7111L174.964 31H175.982C176.674 31 177 30.9294 177 30.7796C177 30.6585 175.629 29.1785 173.953 27.4907L170.906 24.4222H172.898C175.152 24.4222 175.795 24.2348 176.522 23.366L177 22.795V19.6766V16.5582L176.314 15.8679L175.628 15.1778H168.183H160.739V15.8236ZM175.086 17.072C175.367 17.3275 175.409 17.662 175.409 19.6101C175.409 22.7908 175.57 22.6444 172.083 22.6444H169.307L166.395 19.7111L163.483 16.7778H169.123C174.123 16.7778 174.799 16.8112 175.086 17.072Z" fill="#808285"/>
<path d="M228.861 22.3108C228.832 18.5622 228.85 15.3886 228.9 15.258C228.958 15.1049 229.291 15.0211 229.836 15.0227L230.681 15.0248L237.132 21.8541L243.584 28.6833L243.63 21.8518L243.676 15.0204H244.469H245.263V23.0047V30.989H244.309H243.356L237.351 24.6459C234.049 21.1573 231.177 18.1508 230.97 17.9648L230.592 17.6268V23.2517V28.8764L231.122 29.1787C231.579 29.4397 231.651 29.5836 231.652 30.2349C231.653 30.9397 231.621 30.989 231.167 30.9883C230.491 30.9874 229.609 30.4054 229.231 29.7104C228.944 29.1817 228.908 28.4761 228.861 22.3108Z" fill="#FFCB05"/>
<path d="M267.197 29.8634C266.837 29.2784 266.826 29.0612 266.826 22.141V15.0204H267.679H268.532L274.97 21.8243L281.408 28.6281L281.497 21.8686L281.585 15.1091L282.336 15.0546L283.088 15V22.9946V30.989H282.15H281.212L274.859 24.2636L268.506 17.5379L268.456 22.8885C268.429 25.8311 268.45 28.417 268.503 28.6349C268.556 28.8526 268.836 29.154 269.127 29.3047C269.578 29.5391 269.654 29.6805 269.654 30.2839C269.654 30.9516 269.626 30.989 269.115 30.989C268.353 30.989 267.628 30.5642 267.197 29.8634Z" fill="#FFCB05"/>
<path d="M191 31V23.0989V15.1978H191.884H192.768V22.295V29.3921H198.926C206.109 29.3921 205.69 29.5059 205.816 27.5215C205.934 25.6601 205.741 24.8248 205.119 24.502C204.642 24.2545 204.596 24.1544 204.644 23.4831C204.696 22.7726 204.722 22.7409 205.229 22.7905C205.887 22.8551 206.521 23.3024 207.04 24.0675C207.4 24.5978 207.438 24.8647 207.438 26.8546C207.438 29.222 207.321 29.657 206.468 30.4567L205.996 30.9003L198.498 30.9501L191 31Z" fill="#FFCB05"/>
<path d="M210.001 16.706L209.947 15.9519L209.892 15.1978H218.121H226.35V15.9963V16.7947H222.639H218.927V23.0934V29.3921H222.639H226.35V30.1906V30.989H218.131H209.912V30.1906V29.3921H213.624H217.336V23.097V16.802L213.668 16.7539L210.001 16.706Z" fill="#FFCB05"/>
<path d="M247.826 16.706L247.771 15.9519L247.717 15.1978H255.946H264.175V15.9963V16.7947H260.552H256.928V23.0934V29.3921H260.552H264.175V30.1906V30.989H255.956H247.737V30.1906V29.3921H251.449H255.161V23.097V16.802L251.493 16.7539L247.826 16.706Z" fill="#FFCB05"/>
<path d="M285.739 16.5623L286.453 15.88L287.168 15.1978L293.744 15.1985C299.955 15.1991 300.352 15.2184 300.887 15.5456C301.524 15.9356 302 16.7314 302 17.4068C302 17.8247 301.939 17.8593 301.205 17.8593C300.715 17.8593 300.409 17.7794 300.409 17.6515C300.409 17.5372 300.278 17.2977 300.117 17.1192C299.844 16.817 299.413 16.7947 293.852 16.7947C287.881 16.7947 287.88 16.7947 287.605 17.1891C287.37 17.5261 287.33 18.4107 287.33 23.2749C287.33 27.4649 287.386 29.0226 287.542 29.1792C287.698 29.3366 289.335 29.3921 293.806 29.3921H299.859L300.134 28.9977C300.34 28.7034 300.409 28.1441 300.409 26.79C300.409 24.2694 300.765 24.4241 294.969 24.4241H290.315L290.369 23.5813L290.423 22.7386H295.38C300.879 22.7386 300.927 22.7478 301.654 23.9458C301.95 24.4326 301.999 24.8466 301.999 26.8727C302 29.5211 301.842 30.0566 300.887 30.6412C300.352 30.9688 299.954 30.9878 293.625 30.9883L286.929 30.989L286.334 30.3554L285.739 29.7218V23.142V16.5623Z" fill="#FFCB05"/>
<path fill-rule="evenodd" clip-rule="evenodd" d="M22.3508 2.13242C21.8933 2.2325 21.0727 2.50409 21.0196 2.573C20.997 2.60223 20.653 3.95123 20.2551 5.57078C19.6828 7.90032 18.0321 14.325 17.9513 14.5611C17.9229 14.6438 19.1863 16.2269 19.2379 16.1732C19.2608 16.1493 19.5993 14.9093 21.5586 7.33327C22.2954 4.48427 22.9067 2.12911 22.9168 2.09954C22.9418 2.02727 22.7915 2.036 22.3508 2.13242ZM17.3225 17.0415C17.1906 17.5563 16.2769 21.0419 16.2611 21.0953C16.2472 21.1423 16.3589 21.1393 16.6175 21.2457C16.8125 21.326 17.1373 21.5075 17.3512 21.6326C17.5651 21.7577 17.7565 21.8638 17.7705 21.8475C17.7843 21.8313 18.0045 21.0108 18.2415 20.1006C18.4784 19.1903 18.7026 18.3958 18.7138 18.3655C18.7251 18.3353 18.5172 18.1282 18.2775 17.8747C18.0378 17.6212 17.734 17.2947 17.6023 17.149L17.3722 16.861L17.3225 17.0415ZM52.1612 21.666C51.2107 21.8167 50.1323 22.1409 49.4535 22.4798C47.8935 23.2587 46.5785 24.5505 45.7926 26.076L45.5991 26.4517L45.1669 26.1588C43.0954 24.7548 41.055 24.726 39.0909 26.073C37.3935 27.2371 36.6674 29.3031 37.2165 31.4066C37.3501 31.9186 37.6121 32.559 37.8253 32.8943C38.2486 33.5606 38.9678 34.0486 39.8768 34.2866C41.3601 34.6748 42.5504 34.3058 43.0291 33.3093C43.1535 33.0501 43.1678 32.9822 43.1678 32.6508C43.1678 32.3094 43.1586 32.2687 43.0466 32.1181C42.8961 31.9156 42.6239 31.7879 42.2899 31.7631C41.8313 31.7291 41.6454 31.9125 41.5037 32.539C41.3802 33.0845 41.1502 33.3676 40.7455 33.4719C40.244 33.6011 39.4868 33.2586 38.9432 32.6567C38.1999 31.8334 37.8587 30.3778 38.1398 29.2288C38.4174 28.0935 39.293 26.9906 40.3003 26.5073C41.1291 26.1097 42.1229 26.0892 43.0625 26.4502C43.9506 26.7915 44.945 27.5414 45.8059 28.519C45.9169 28.6451 46.0213 28.7321 46.038 28.7124C46.0546 28.6927 46.1114 28.5509 46.1642 28.3972C46.5785 27.1919 47.2021 26.1341 47.9853 25.3082C48.6336 24.6246 49.2206 24.1955 50.0858 23.7728C51.5312 23.0668 53.0444 22.8398 54.3766 23.1293C56.4728 23.5847 58.2482 25.3124 59.1378 27.7626C59.7301 29.394 59.8443 31.3937 59.4387 33.0343C58.7523 35.8107 56.9573 37.5559 54.0689 38.2554C52.9855 38.5177 52.5274 38.5612 50.8615 38.5604C49.5349 38.5597 49.2279 38.5468 48.5555 38.4629C45.756 38.1136 42.7958 37.3434 40.2749 36.3082C37.4809 35.1609 33.6904 33.4115 30.0074 31.5695C28.2825 30.7068 28.3067 30.7149 28.3053 30.9979C28.3049 31.0688 28.2651 31.3555 28.2167 31.635C28.1683 31.9144 28.1354 32.1492 28.1434 32.1567C28.2152 32.2239 30.6403 33.418 32.1829 34.1457C34.9003 35.4278 36.9348 36.3128 39.7717 37.4472C43.0463 38.7566 45.7854 39.4871 48.6393 39.8122C49.462 39.9059 51.4811 39.9434 52.2049 39.8784C56.5794 39.4856 59.3195 37.4564 60.5415 33.7047C60.8787 32.6695 60.9685 32.1504 60.9956 31.0815C61.0348 29.5384 60.8204 28.2861 60.2822 26.9133C59.1878 24.1217 57.2131 22.2923 54.6889 21.7313C54.1656 21.615 52.7184 21.5776 52.1612 21.666ZM15.7273 23.1849C15.6514 23.4864 15.576 23.7483 15.5598 23.7669C15.5437 23.7856 15.3529 23.7538 15.1358 23.6963C14.3781 23.4955 13.9824 23.4443 13.016 23.422C11.688 23.3913 10.8043 23.5166 9.70996 23.8908C6.93652 24.8392 5.12217 26.9648 4.43255 30.0737C3.88787 32.5291 4.33813 34.9195 5.69338 36.7676C6.75749 38.2186 8.6653 39.4982 10.276 39.8411C10.8115 39.9551 11.524 39.9327 11.8835 39.7906C12.5927 39.5103 13.1139 38.8865 13.4862 37.8725C13.5911 37.5868 14.2709 35.1405 14.2495 35.1261C14.2432 35.1219 14.0777 35.0761 13.8817 35.0242C13.6857 34.9723 13.3505 34.8596 13.1368 34.7737C12.9231 34.6878 12.7419 34.6253 12.7341 34.6347C12.7264 34.6441 12.6207 35.0291 12.4994 35.4901C12.0659 37.1371 11.8307 37.6295 11.3349 37.9273C10.8234 38.2347 9.91834 38.0215 8.85209 37.3426C7.52954 36.5003 6.60052 35.3279 6.14624 33.9276C5.89849 33.164 5.85262 32.8537 5.853 31.9437C5.85342 31.0023 5.92922 30.5123 6.21018 29.635C6.84131 27.6644 8.28586 26.1693 10.1853 25.5208C11.1591 25.1884 12.4835 25.0509 13.5673 25.1696C13.9916 25.2161 15.0277 25.4083 15.0994 25.4537C15.1242 25.4694 14.9453 26.2496 14.8356 26.6041C14.814 26.6739 14.8957 26.6184 15.2968 26.6836C15.5447 26.724 15.9009 26.7733 16.0934 26.8341C16.2859 26.8949 16.4443 26.9578 16.4498 26.9503C16.4552 26.9428 16.5111 26.697 16.5645 26.4842C16.618 26.2714 16.6773 26.0794 16.6963 26.0575C16.7375 26.01 17.5703 26.4238 18.4931 26.9503C19.2618 27.389 19.5819 27.7191 19.2798 26.6621C19.245 26.2789 19.0714 25.7168 19.0283 25.6734C19.0235 25.6686 18.553 25.4101 18.0362 25.1126C17.5194 24.8151 17.0907 24.5658 17.0837 24.5586C17.0767 24.5513 17.1362 24.3046 17.2159 24.0103C17.2957 23.7159 17.3611 23.4602 17.3613 23.442C17.3624 23.3471 16.0931 22.6368 15.9224 22.6368C15.8846 22.6368 15.819 22.8211 15.7273 23.1849ZM20.7303 27.424L20.7238 28.2079L21.5898 28.6858C24.7484 30.4286 26.7039 31.4596 26.7454 31.3908C26.7631 31.3614 26.8165 31.0204 26.8267 30.6385V29.9722L25.8886 29.4502C24.3912 28.6564 21.9238 27.3134 20.9884 26.7828L20.7368 26.6402L20.7303 27.424ZM14.4278 28.1668C14.4019 28.2581 14.0919 29.4353 13.7389 30.783L13.0537 33.2822L13.3472 33.4327C13.6092 33.5706 14.1791 33.7508 14.4792 33.7981C14.6017 33.8173 14.6303 33.855 14.6469 33.7981C14.7271 33.5223 16.0619 28.391 16.0619 28.3631C16.0619 28.2806 15.2866 28.0824 14.7548 28.029L14.4748 28.001L14.4278 28.1668Z" fill="#808285"/>
<path fill-rule="evenodd" clip-rule="evenodd" d="M22.2161 1.06123C21.2727 1.18955 20.239 1.46768 19.317 1.84136C18.1374 2.31944 17.5628 2.68302 16.7497 3.46595C15.1524 5.00425 14.1255 6.84677 13.7381 8.8701C13.658 9.28823 13.646 9.49023 13.647 10.3992C13.648 11.4141 13.6522 11.4661 13.7816 12.0811C14.231 14.2171 15.0313 15.5127 17.5517 18.1844C18.3205 18.9994 20.2251 20.8552 21.1798 21.7195C21.7416 22.2281 22.8259 23.3395 23.2142 23.8048C24.6366 25.5092 25.5619 27.2762 25.8907 28.9157C26.0218 29.5694 26.0507 30.6787 25.953 31.3025C25.8551 31.9268 25.7444 32.2712 25.6139 32.3568C25.3855 32.5065 25.2562 32.4533 22.512 31.08C19.7116 29.6786 19.8193 29.7458 19.8193 29.3996C19.8193 29.3109 19.8605 28.9772 19.9108 28.658C20.0307 27.8975 20.0396 26.6846 19.9296 26.0879C19.7112 24.9027 19.1791 23.8994 18.3089 23.0318C16.9909 21.7178 15.1554 20.934 12.9023 20.7231C12.1275 20.6507 10.58 20.6932 9.83962 20.8074C6.33912 21.3473 3.46426 23.2825 1.66909 26.3075C0.832016 27.7179 0.3613 28.9753 0.0951538 30.5117C0.0131082 30.9853 0.0013455 31.2026 4.78365e-05 32.2671C-0.0015847 33.6439 0.0373032 33.9935 0.312491 35.0766C1.12131 38.26 3.28572 40.9234 6.32928 42.4803C7.9478 43.3082 9.65204 43.8027 11.7194 44.0444C12.5027 44.1359 14.3431 44.1477 15.0264 44.0656C17.2938 43.793 19.1699 43.1152 20.9705 41.9179C21.8016 41.3653 22.5179 40.7671 23.2526 40.0122C24.5151 38.7148 25.5378 37.1987 26.2531 35.5638C26.5449 34.897 26.628 34.7862 26.8038 34.8294C26.8648 34.8444 27.9412 35.3268 29.196 35.9014C37.2182 39.5752 42.057 41.3283 45.6888 41.8768C46.8087 42.046 47.4649 42.0969 48.8283 42.1203C50.6454 42.1515 51.7365 42.068 53.1134 41.7922C55.5951 41.2952 57.5781 40.1914 58.9002 38.5711C59.8985 37.3478 60.6202 35.6493 60.9023 33.859C60.9386 33.6286 60.978 33.3841 60.9897 33.3157C61.0331 33.0639 60.9357 33.2866 60.7613 33.8381C60.1774 35.6846 59.2943 37.1881 58.177 38.2377C56.6664 39.6569 54.7735 40.4172 51.9678 40.7319C51.1591 40.8226 48.8198 40.861 48.0695 40.7958C43.595 40.4075 36.867 38.0866 29.3425 34.3358C27.5555 33.445 27.319 33.3118 27.219 33.1405C27.1452 33.0141 27.1459 33.0024 27.2496 32.6182C27.7251 30.8562 27.7469 29.0944 27.3139 27.4137C26.9661 26.0638 26.2143 24.5817 25.1918 23.2305C24.3359 22.0995 23.0767 20.8064 21.2007 19.1319C17.6863 15.9949 16.1685 13.9181 15.6758 11.5722C15.3826 10.1762 15.6395 8.31506 16.3255 6.86583C17.1377 5.15003 18.78 3.74001 20.722 3.09135C21.6989 2.76501 22.5345 2.64658 23.6077 2.68227C25.2471 2.73677 26.6591 3.1872 27.4835 3.91864C28.5776 4.88934 29.1257 5.97352 29.184 7.28195C29.2224 8.14548 29.0615 8.89423 28.6627 9.70795C28.5008 10.0384 28.4069 10.1667 28.1098 10.4639C27.8217 10.7519 27.6824 10.8554 27.396 10.994C26.9645 11.2029 26.6739 11.2753 26.2867 11.2705C25.5965 11.2621 25.1901 10.9405 24.9472 10.2107C24.6877 9.43074 24.2424 9.11563 23.5745 9.23917C23.0238 9.34101 22.66 9.6423 22.5359 10.0993C22.3705 10.7088 22.7329 11.6773 23.3353 12.2355C23.9066 12.7647 24.7746 13.0598 25.7585 13.0591C27.1357 13.0581 28.8167 12.0612 29.6823 10.7323C30.0945 10.0993 30.4405 9.2318 30.6253 8.36738C30.7644 7.71696 30.7647 6.56064 30.6259 5.93761C30.2934 4.44557 29.3931 3.13906 28.0858 2.25153C27.2353 1.67408 26.0129 1.23082 24.7925 1.05717C24.2441 0.979166 22.8028 0.981429 22.2161 1.06123ZM12.8706 22.2107C14.6691 22.4525 16.2938 23.1479 17.2277 24.0758C18.1301 24.9724 18.5496 26.1788 18.4378 27.5558C18.4039 27.9733 18.3341 28.4649 18.2907 28.592C18.2795 28.6245 18.1777 28.5511 18.0292 28.4035C17.4789 27.8561 16.343 27.1845 15.5009 26.9085C14.3511 26.5318 13.0544 26.5453 12.0734 26.9442C11.6848 27.1023 11.1522 27.4778 10.8435 27.8115C9.67004 29.0799 9.31394 30.8048 9.91828 32.2932C10.0959 32.7307 10.3982 33.1694 10.7964 33.5675C11.5057 34.2767 12.3572 34.7266 13.4277 34.9579C13.6869 35.014 13.9492 35.0312 14.5031 35.0286C15.1545 35.0255 15.281 35.013 15.6449 34.9155C16.4391 34.7027 17.2003 34.2716 17.804 33.6926C18.4102 33.1113 18.8498 32.4357 19.1268 31.6599C19.2406 31.3411 19.3316 31.1988 19.4218 31.1988C19.4629 31.1988 21.219 32.0252 24.406 33.5441C24.9855 33.8203 25.0937 33.9238 25.0937 34.2022C25.0937 34.5914 24.4234 35.9586 23.7111 37.0219C23.0555 38.0007 21.9792 39.1907 21.1589 39.8436C19.9472 40.808 18.6167 41.5148 17.2105 41.9411C15.3691 42.4992 13.2837 42.5913 11.0706 42.2122C10.4593 42.1075 9.36736 41.8396 8.85202 41.6678C5.98063 40.7109 3.43483 38.1735 2.42885 35.2657C1.68705 33.1215 1.69483 30.9143 2.45221 28.6292C2.90258 27.2704 3.53182 26.2347 4.53868 25.1948C5.57354 24.126 6.74403 23.3514 8.16288 22.7961C8.75532 22.5643 9.76004 22.3034 10.3799 22.2205C10.983 22.1397 12.304 22.1346 12.8706 22.2107ZM14.6294 28.1627C16.0491 28.4568 17.624 29.6491 17.7136 30.4975C17.7366 30.7147 17.5743 31.3002 17.3721 31.7305C16.9473 32.6342 16.2369 33.258 15.2985 33.5514C15.022 33.6378 14.9046 33.6492 14.3147 33.6469C13.7111 33.6444 13.6087 33.6331 13.2774 33.5315C11.6479 33.0318 10.7221 31.7959 10.9902 30.4782C11.0579 30.1454 11.4095 29.456 11.6746 29.1363C12.4189 28.2387 13.4138 27.9108 14.6294 28.1627Z" fill="#FFCB05"/>
</g>
<defs>
<clipPath id="clip0_2_18">
<rect width="302" height="46" fill="white"/>
</clipPath>
</defs>
</svg>
